<svg width="500" height="500" viewBox="0 0 500 500" xmlns="http://www.w3.org/2000/svg">
  <path d="M 92 91 H 168 V 138 H 92 V 91 M 130 138 V 242 M 92 242 H 168 V 289 H 92 V 242 M 130 289 V 393 M 92 393 H 168 V 440 H 92 V 393 M 168 138 L 250 242 L 332 138 M 213 242 H 287 V 289 H 213 V 242 M 332 91 H 408 V 138 H 332 V 91 M 370 138 V 242 M 332 242 H 408 V 289 H 332 V 242 M 370 289 V 393 M 332 393 H 408 V 440 H 332 V 393" stroke="#0A3D99" stroke-width="10" fill="none" stroke-linecap="round" stroke-linejoin="round"/>
</svg>
